<svg width="64" height="64" viewBox="0 0 64 64" fill="none" xmlns="http://www.w3.org/2000/svg">
<g clip-path="url(#clip0_1_3)">
<path d="M39.7016 21.2836L37.6056 21.6057L35.5098 21.9274C34.719 22.0487 33.5386 22.5479 33.0058 23.8062C32.556 24.8848 32.3101 25.8644 32.2068 26.7559L36.4759 26.1009C36.8549 26.0425 37.2094 26.3025 37.2675 26.6818C37.3257 27.0612 37.0657 27.4156 36.6863 27.4738L32.1551 28.1696C32.2637 30.5121 33.3172 32.1358 33.7769 33.2902C33.9661 33.7652 34.2828 34.416 34.6585 35.1371L37.2605 34.7378C37.6398 34.6796 37.9946 34.94 38.0528 35.3192C38.1109 35.6979 37.8506 36.0527 37.4715 36.1112L35.3563 36.4359C36.2675 38.0892 37.287 39.8088 37.7826 40.6038C38.93 42.446 40.013 42.4965 40.7934 42.3766C41.5745 42.2567 42.5917 41.8842 43.1341 39.7826C43.5403 38.2081 44.6209 33.5004 44.7623 31.6045C44.7741 31.4439 44.7936 31.2721 44.8166 31.0915L40.4793 31.7573C40.1003 31.8152 39.7455 31.5548 39.687 31.1758C39.6291 30.7968 39.8892 30.4423 40.2682 30.3838L44.9969 29.6583C45.185 27.7517 45.0816 25.2098 42.6533 22.3256C41.7678 21.2848 40.492 21.1626 39.7016 21.2836Z" fill="black"/>
<path d="M41.8052 8.55124C40.0584 10.291 39.1478 16.1429 38.7903 17.9969C38.705 19.852 37.8708 19.5226 37.8596 18.5014C37.8443 17.0899 37.542 15.5572 38.867 11.2752C39.5321 9.12717 39.6578 8.32549 38.7469 8.3007C37.8357 8.27622 37.2061 10.083 37.1308 9.37126C37.0547 8.65929 36.0874 6.73561 35.2989 6.85634C34.5111 6.97713 34.1651 9.10234 34.3068 9.80423C34.4482 10.5064 33.3053 8.97157 32.4437 9.2682C31.5821 9.56425 31.9428 10.2921 33.2206 12.142C35.7689 15.829 35.9404 17.3819 36.3495 18.7333C36.645 19.7106 35.9475 20.2746 35.3099 18.5308C34.4135 16.8692 31.7897 11.5605 29.6009 10.4243C27.4127 9.28817 27.5597 12.5369 28.9025 13.1482C26.7307 13.2032 28.1353 15.3559 30.9696 16.3022C31.6577 16.5321 34.0185 17.995 35.0156 21.2077L37.4448 20.8346L39.8744 20.4617C39.8617 17.0982 41.6752 14.9942 42.2623 14.5688C44.6816 12.8161 45.3773 10.3417 43.2887 10.9403C44.386 9.95418 43.5521 6.81149 41.8052 8.55124Z" fill="black"/>
</g>
<path d="M9.98825 63.0624L25.4165 47.6353C29.2266 49.8859 33.6544 51.2 38.4 51.2C52.5386 51.2 64 39.7386 64 25.6C64 11.4614 52.5386 0 38.4 0C24.2614 0 12.8 11.4614 12.8 25.6C12.8 30.3456 14.1141 34.7744 16.3647 38.5845L0.936501 54.0117C0.337001 54.6122 0 55.4261 0 56.2741C0 57.1232 0.337126 57.937 0.937626 58.5365L5.4635 63.0624C6.7125 64.3125 8.73925 64.3125 9.98825 63.0624ZM16 25.6C16 13.2491 26.048 3.2 38.4 3.2C50.752 3.2 60.8 13.2491 60.8 25.6C60.8 37.9509 50.752 48 38.4 48C26.048 48 16 37.9509 16 25.6ZM7.66825 51.8059L18.1941 41.28C19.5094 42.9727 21.0283 44.4906 22.72 45.8059L12.1941 56.3317L7.66825 51.8059ZM3.2 56.2741L5.40588 54.0682L9.93175 58.5941L7.72588 60.8L3.2 56.2741Z" fill="black"/>
<defs>
<clipPath id="clip0_1_3">
<rect width="32" height="32" fill="white" transform="translate(16 22.6274) rotate(-45)"/>
</clipPath>
</defs>
</svg>
