<svg width="32" height="33" viewBox="0 0 32 33" fill="none" xmlns="http://www.w3.org/2000/svg">
<path d="M16 3.16666H15.3866C15.1033 3.18763 14.8341 3.29854 14.6183 3.48321C14.4024 3.66789 14.2512 3.91668 14.1866 4.19332C14.1209 4.46931 14.145 4.75905 14.2553 5.02042C14.3656 5.28179 14.5564 5.50117 14.8 5.64666C15.9876 6.351 16.9697 7.35456 17.6482 8.55714C18.3267 9.75972 18.6778 11.1193 18.6666 12.5C18.6644 14.0541 18.2096 15.5739 17.3577 16.8737C16.5059 18.1736 15.2938 19.1971 13.8697 19.8194C12.4457 20.4416 10.8711 20.6356 9.3386 20.3776C7.80606 20.1196 6.38184 19.4209 5.23996 18.3667C5.02787 18.1653 4.75548 18.0393 4.46473 18.008C4.17398 17.9767 3.881 18.0418 3.63091 18.1934C3.38083 18.345 3.1875 18.5745 3.08072 18.8468C2.97394 19.119 2.95961 19.4188 3.03996 19.7C3.6397 22.1259 4.90911 24.3344 6.70342 26.0737C8.49772 27.813 10.7447 29.013 13.1881 29.537C15.6315 30.0609 18.1729 29.8876 20.5226 29.0369C22.8723 28.1862 24.9356 26.6923 26.4772 24.7256C28.0189 22.7589 28.9768 20.3985 29.2418 17.9137C29.5067 15.4289 29.0681 12.9196 27.9758 10.672C26.8835 8.42443 25.1816 6.52905 23.0641 5.20202C20.9467 3.87499 18.4989 3.16972 16 3.16666Z" fill="#F8F9FA"/>
</svg>
