<svg width="32" height="33" viewBox="0 0 32 33" fill="none" xmlns="http://www.w3.org/2000/svg">
<path d="M16 23.2957C19.7532 23.2957 22.7957 20.2532 22.7957 16.5C22.7957 12.7469 19.7532 9.70432 16 9.70432C12.2469 9.70432 9.20435 12.7469 9.20435 16.5C9.20435 20.2532 12.2469 23.2957 16 23.2957Z" fill="black"/>
<path fill-rule="evenodd" clip-rule="evenodd" d="M17.2741 4.60754C17.2741 3.90382 16.7036 3.33334 16 3.33334C15.2962 3.33334 14.7257 3.90382 14.7257 4.60754V8.02105C15.1414 7.9591 15.567 7.927 16 7.927C16.4329 7.927 16.8584 7.95909 17.2741 8.02102V4.60754ZM17.2741 24.9792C16.8584 25.0412 16.4329 25.0732 16 25.0732C15.567 25.0732 15.1414 25.0411 14.7257 24.9792V28.3925C14.7257 29.0961 15.2962 29.6667 16 29.6667C16.7036 29.6667 17.2741 29.0961 17.2741 28.3925V24.9792Z" fill="black"/>
<path fill-rule="evenodd" clip-rule="evenodd" d="M27.8926 17.7741C28.5962 17.7741 29.1667 17.2036 29.1667 16.5C29.1667 15.7963 28.5962 15.2257 27.8926 15.2257H24.479C24.541 15.6415 24.5731 16.0671 24.5731 16.5C24.5731 16.9329 24.541 17.3584 24.479 17.7741H27.8926ZM7.52084 17.7741C7.45891 17.3584 7.42681 16.9329 7.42681 16.5C7.42681 16.0671 7.45892 15.6415 7.52087 15.2257H4.10756C3.40385 15.2257 2.83337 15.7963 2.83337 16.5C2.83337 17.2036 3.40385 17.7741 4.10756 17.7741H7.52084Z" fill="black"/>
<path fill-rule="evenodd" clip-rule="evenodd" d="M25.3104 8.99168C25.808 8.49407 25.808 7.6873 25.3104 7.1897C24.8128 6.6921 24.006 6.6921 23.5084 7.1897L21.0945 9.60352C21.4324 9.85371 21.7558 10.1319 22.0621 10.4381C22.3682 10.7442 22.6464 11.0678 22.8965 11.4055L25.3104 8.99168ZM10.9053 23.3967C10.5675 23.1465 10.244 22.8684 9.93784 22.5623C9.63166 22.2561 9.35348 21.9325 9.1033 21.5948L6.68985 24.0081C6.19225 24.5057 6.19225 25.3125 6.68985 25.8101C7.18745 26.3077 7.99422 26.3077 8.49184 25.8101L10.9053 23.3967Z" fill="black"/>
<path fill-rule="evenodd" clip-rule="evenodd" d="M8.49184 7.18964C7.99424 6.69204 7.18746 6.69204 6.68985 7.18964C6.19225 7.68725 6.19225 8.49402 6.68985 8.99162L9.10368 11.4055C9.35386 11.0677 9.63204 10.7441 9.93821 10.4379C10.2444 10.1318 10.5679 9.85361 10.9057 9.60345L8.49184 7.18964ZM22.8969 21.5947C22.6468 21.9324 22.3685 22.256 22.0624 22.5621C21.7563 22.8683 21.4327 23.1465 21.0949 23.3967L23.5084 25.8101C24.006 26.3077 24.8127 26.3077 25.3104 25.8101C25.808 25.3125 25.808 24.5057 25.3104 24.0081L22.8969 21.5947Z" fill="black"/>
</svg>
